<svg width="1024" height="1024" viewBox="0 0 1024 1024" fill="none" xmlns="http://www.w3.org/2000/svg">
<rect width="1024" height="1024" rx="262" fill="#061B22"/>
<path d="M632 512L297.08 846.92C281.167 862.833 259.584 871.773 237.08 871.773C214.576 871.773 192.993 862.833 177.08 846.92C161.167 831.007 152.227 809.424 152.227 786.92C152.227 764.416 161.167 742.833 177.08 726.92L512 392" stroke="#10B77F" stroke-width="28" stroke-linecap="round" stroke-linejoin="round"/>
<path d="M752 632L912 472" stroke="#10B77F" stroke-width="28" stroke-linecap="round" stroke-linejoin="round"/>
<path d="M892 492L815.44 415.44C800.436 400.441 792.005 380.096 792 358.88V312L701.6 221.6C656.982 177.007 596.601 151.774 533.52 151.36L392 150.4L428.8 183.2C454.938 206.376 475.868 234.828 490.209 266.682C504.55 298.535 511.977 333.067 512 368V432L592 512H638.879C660.095 512.004 680.44 520.436 695.44 535.44L772 612" stroke="#10B77F" stroke-width="28" stroke-linecap="round" stroke-linejoin="round"/>
</svg>
